<?xml version="1.0" encoding="UTF-8" standalone="no"?><!-- Generator: Gravit.io --><svg xmlns="http://www.w3.org/2000/svg" xmlns:xlink="http://www.w3.org/1999/xlink" style="isolation:isolate" viewBox="-0.5 -47.58 72.08 72.08" width="72.08pt" height="72.08pt"><path d=" M 51.824 -4.485 C 50.932 -4.93 46.59 -7.053 45.782 -7.346 C 44.973 -7.646 44.381 -7.791 43.789 -6.902 C 43.205 -6.029 41.505 -4.047 40.993 -3.461 C 40.474 -2.883 39.959 -2.839 39.079 -3.239 C 38.191 -3.683 35.339 -4.616 31.962 -7.637 C 29.333 -9.991 27.567 -12.879 27.046 -13.767 C 26.531 -14.656 26.99 -15.145 27.431 -15.589 C 27.834 -15.989 28.323 -16.611 28.767 -17.138 C 29.199 -17.674 29.341 -18.029 29.646 -18.607 C 29.943 -19.229 29.792 -19.717 29.572 -20.159 C 29.35 -20.603 27.582 -24.957 26.842 -26.692 C 26.131 -28.422 25.399 -28.203 24.851 -28.203 C 24.342 -28.247 23.753 -28.247 23.16 -28.247 C 22.568 -28.247 21.611 -28.028 20.8 -27.184 C 19.991 -26.295 17.705 -24.163 17.705 -19.854 C 17.705 -15.544 20.874 -11.368 21.315 -10.746 C 21.757 -10.169 27.55 -1.284 36.42 2.537 C 38.534 3.425 40.181 3.958 41.467 4.4 C 43.581 5.072 45.509 4.977 47.035 4.758 C 48.735 4.488 52.268 2.623 53.005 0.535 C 53.76 -1.553 53.76 -3.286 53.538 -3.686 C 53.319 -4.086 52.739 -4.308 51.85 -4.708 M 35.721 17.336 L 35.673 17.336 C 30.431 17.336 25.237 15.915 20.702 13.249 L 19.636 12.615 L 8.53 15.503 L 11.506 4.708 L 10.798 3.597 C 7.866 -1.071 6.308 -6.446 6.308 -11.982 C 6.308 -28.108 19.503 -41.258 35.753 -41.258 C 43.614 -41.258 50.991 -38.192 56.547 -32.639 C 62.101 -27.133 65.163 -19.756 65.163 -11.937 C 65.151 4.186 51.954 17.339 35.739 17.339 M 60.774 -36.866 C 54.021 -43.393 45.136 -47.08 35.673 -47.08 C 16.18 -47.08 0.308 -31.283 0.299 -11.857 C 0.299 -5.649 1.925 0.404 5.023 5.75 L 0 24 L 18.762 19.107 C 23.933 21.9 29.75 23.384 35.673 23.393 L 35.691 23.393 C 55.194 23.393 71.072 7.589 71.08 -11.839 C 71.08 -21.246 67.408 -30.098 60.729 -36.75" fill="rgb(66,50,32)" vector-effect="non-scaling-stroke" stroke-width="1" stroke="rgb(66,48,34)" stroke-linejoin="miter" stroke-linecap="butt" stroke-miterlimit="4"/></svg>